<?xml version="1.0" encoding="utf-8"?>
<!-- Generator: Adobe Illustrator 23.0.3, SVG Export Plug-In . SVG Version: 6.00 Build 0)  -->
<svg version="1.1" id="Laag_1" xmlns="http://www.w3.org/2000/svg" xmlns:xlink="http://www.w3.org/1999/xlink" x="0px" y="0px"
	 viewBox="0 0 96.3 47.2" style="enable-background:new 0 0 96.3 47.2;" xml:space="preserve">
<style type="text/css">
	.st0{fill:#333131;}
</style>
<g>
	<path class="st0" d="M37.9,2.4h0.7v14.9h-0.7v-5.7H27.7v5.7h-0.6V2.4h0.6V11h10.2V2.4z"/>
	<path class="st0" d="M42.1,16.1c-0.9-0.9-1.4-2-1.4-3.3s0.5-2.3,1.4-3.3c0.9-0.9,2-1.4,3.3-1.4s2.4,0.5,3.3,1.4s1.4,2,1.4,3.3
		s-0.5,2.4-1.3,3.3c-0.9,0.9-2,1.4-3.3,1.4h-0.2C44.1,17.5,43,17,42.1,16.1z M49.6,12.9c0-1.1-0.4-2.1-1.2-2.9
		c-0.8-0.8-1.8-1.2-2.9-1.2s-2.1,0.4-2.9,1.2s-1.2,1.8-1.2,2.9s0.4,2.1,1.2,2.9c0.8,0.8,1.8,1.2,2.9,1.2c1.1,0,2.1-0.4,2.9-1.2
		C49.2,15,49.6,14,49.6,12.9z"/>
	<path class="st0" d="M55.3,16.9v0.6c-0.9,0-1.7-0.3-2.4-0.9c-0.7-0.6-1-1.4-1-2.4V4.8h0.6v3.6h2.7V9h-2.7v5.1c0,0.8,0.3,1.5,0.8,2
		C53.8,16.6,54.5,16.9,55.3,16.9z"/>
	<path class="st0" d="M61.3,17.5h-0.2c-1.3,0-2.3-0.5-3.3-1.4c-0.9-0.9-1.4-2-1.4-3.3s0.5-2.3,1.4-3.3s2.1-1.4,3.4-1.4
		s2.5,0.5,3.5,1.6L58.5,16c0.9,0.7,1.7,1,2.5,1s1.5-0.2,2.1-0.5c0.6-0.4,1.1-0.8,1.6-1.5v1C63.8,17,62.7,17.5,61.3,17.5z M61.1,8.7
		c-1,0-2,0.4-2.8,1.2s-1.2,1.8-1.2,2.8s0.3,2,1,2.8l5.8-5.7C63.1,9.1,62.2,8.7,61.1,8.7z"/>
	<path class="st0" d="M70.1,16.9v0.6c-0.9,0-1.7-0.3-2.4-0.9c-0.7-0.6-1-1.4-1-2.4V2.4h0.6v11.7c0,0.8,0.3,1.5,0.8,2
		C68.6,16.7,69.3,16.9,70.1,16.9z"/>
</g>
<g>
	<path class="st0" d="M14,21.1l11.7,24h-1.1l-4.4-8.9H7.6l-4.4,8.9h-1L14,21.1z M13.9,23.3l-5.8,12h11.7L13.9,23.3z"/>
	<path class="st0" d="M33.7,31.6c-1.1,0-2.1,0.4-2.9,1.3s-1.3,1.8-1.3,2.9v9.4h-1V31h1v2.1c0.4-0.7,1-1.3,1.8-1.8
		c0.8-0.5,1.7-0.7,2.7-0.7s1.9,0.3,2.8,1v1.2C35.8,32,34.8,31.6,33.7,31.6z"/>
	<path class="st0" d="M46.2,45.5h-0.3c-2,0-3.7-0.7-5.2-2.2c-1.4-1.5-2.2-3.2-2.2-5.2s0.7-3.7,2.2-5.2s3.2-2.2,5.4-2.2
		s3.9,0.8,5.4,2.4v1.6c-0.6-1-1.5-1.7-2.5-2.3c-1-0.6-2-0.8-3.1-0.8c-1.7,0-3.2,0.6-4.5,1.9c-1.3,1.3-1.9,2.8-1.9,4.6
		s0.6,3.3,1.9,4.6s2.8,1.9,4.5,1.9c1.1,0,2.1-0.3,3.1-0.8c1-0.6,1.8-1.3,2.5-2.3v1.6C50.1,44.7,48.3,45.5,46.2,45.5z"/>
	<path class="st0" d="M68.2,31v14h-1v-3.5c-0.6,1.2-1.5,2.1-2.6,2.8c-1.2,0.7-2.4,1-3.8,1c-2,0-3.8-0.7-5.2-2.2
		c-1.5-1.5-2.2-3.2-2.2-5.2s0.7-3.8,2.2-5.2c1.5-1.5,3.2-2.2,5.2-2.2c1.3,0,2.6,0.4,3.8,1.1c1.2,0.7,2.1,1.6,2.5,2.8V31H68.2
		L68.2,31z M54.4,38.1c0,1.8,0.6,3.3,1.9,4.5c1.3,1.3,2.8,1.9,4.6,1.9s3.3-0.6,4.5-1.9s1.9-2.8,1.9-4.6s-0.6-3.3-1.9-4.6
		s-2.8-1.9-4.5-1.9c-1.8,0-3.3,0.7-4.5,2C55.1,34.8,54.4,36.3,54.4,38.1z"/>
	<path class="st0" d="M77,44.4v0.9c-1.5,0-2.7-0.5-3.8-1.5c-1-1-1.6-2.2-1.6-3.8V25.4h1v5.7H77V32h-4.3v8c0,1.3,0.4,2.3,1.3,3.2
		C74.7,44,75.8,44.4,77,44.4z"/>
	<path class="st0" d="M80.8,43.2c-1.4-1.5-2.2-3.2-2.2-5.2s0.7-3.7,2.2-5.1c1.5-1.5,3.2-2.2,5.3-2.2s3.8,0.7,5.2,2.2
		c1.4,1.5,2.2,3.2,2.2,5.2s-0.7,3.7-2.1,5.2s-3.1,2.2-5.2,2.2H86C84,45.4,82.3,44.7,80.8,43.2z M92.6,38.1c0-1.8-0.6-3.3-1.9-4.6
		s-2.8-1.9-4.5-1.9s-3.3,0.7-4.5,2s-1.9,2.8-1.9,4.6s0.6,3.3,1.9,4.5c1.3,1.3,2.8,1.9,4.6,1.9c1.8,0,3.3-0.6,4.5-1.9
		C91.9,41.4,92.6,39.8,92.6,38.1z"/>
</g>
<g>
	<rect x="21.1" y="21.1" class="st0" width="54.9" height="0.4"/>
</g>
</svg>
